<svg width="20" height="20" viewBox="0 0 20 20" fill="none" xmlns="http://www.w3.org/2000/svg">
<path d="M6.6665 4.79163C6.32484 4.79163 6.0415 4.50829 6.0415 4.16663V1.66663C6.0415 1.32496 6.32484 1.04163 6.6665 1.04163C7.00817 1.04163 7.2915 1.32496 7.2915 1.66663V4.16663C7.2915 4.50829 7.00817 4.79163 6.6665 4.79163ZM13.3332 4.79163C12.9915 4.79163 12.7082 4.50829 12.7082 4.16663V1.66663C12.7082 1.32496 12.9915 1.04163 13.3332 1.04163C13.6748 1.04163 13.9582 1.32496 13.9582 1.66663V4.16663C13.9582 4.50829 13.6748 4.79163 13.3332 4.79163ZM17.0832 8.19996H2.9165C2.57484 8.19996 2.2915 7.91663 2.2915 7.57496C2.2915 7.23329 2.57484 6.94996 2.9165 6.94996H17.0832C17.4248 6.94996 17.7082 7.23329 17.7082 7.57496C17.7082 7.91663 17.4248 8.19996 17.0832 8.19996Z" fill="#64748B"/>
<path d="M13.3333 18.9583H6.66667C3.625 18.9583 1.875 17.2083 1.875 14.1666V7.08329C1.875 4.04163 3.625 2.29163 6.66667 2.29163H13.3333C16.375 2.29163 18.125 4.04163 18.125 7.08329V14.1666C18.125 17.2083 16.375 18.9583 13.3333 18.9583ZM6.66667 3.54163C4.28333 3.54163 3.125 4.69996 3.125 7.08329V14.1666C3.125 16.55 4.28333 17.7083 6.66667 17.7083H13.3333C15.7167 17.7083 16.875 16.55 16.875 14.1666V7.08329C16.875 4.69996 15.7167 3.54163 13.3333 3.54163H6.66667Z" fill="#64748B"/>
<path d="M7.08333 12.0833C6.975 12.0833 6.86667 12.0583 6.76667 12.0166C6.66667 11.975 6.575 11.9166 6.49167 11.8416C6.41667 11.7583 6.35833 11.6666 6.31667 11.5666C6.275 11.4666 6.25 11.3583 6.25 11.25C6.25 11.0333 6.34167 10.8166 6.49167 10.6583C6.575 10.5833 6.66667 10.525 6.76667 10.4833C6.91667 10.4166 7.08333 10.4 7.25 10.4333C7.3 10.4416 7.35 10.4583 7.4 10.4833C7.45 10.5 7.5 10.525 7.55 10.5583L7.675 10.6583C7.70833 10.7 7.75 10.7416 7.775 10.7833C7.80833 10.8333 7.83333 10.8833 7.85 10.9333C7.875 10.9833 7.89167 11.0333 7.9 11.0833C7.90833 11.1416 7.91667 11.1916 7.91667 11.25C7.91667 11.4666 7.825 11.6833 7.675 11.8416C7.51667 11.9916 7.3 12.0833 7.08333 12.0833ZM10 12.0833C9.78333 12.0833 9.56667 11.9916 9.40833 11.8416L9.30833 11.7166C9.27677 11.6702 9.25155 11.6197 9.23333 11.5666C9.20926 11.5194 9.19241 11.4688 9.18333 11.4166C9.175 11.3583 9.16667 11.3083 9.16667 11.25C9.16667 11.1416 9.19167 11.0333 9.23333 10.9333C9.275 10.8333 9.33333 10.7416 9.40833 10.6583C9.64167 10.425 10.0167 10.35 10.3167 10.4833C10.425 10.525 10.5083 10.5833 10.5917 10.6583C10.7417 10.8166 10.8333 11.0333 10.8333 11.25C10.8333 11.3083 10.825 11.3583 10.8167 11.4166C10.8083 11.4666 10.7917 11.5166 10.7667 11.5666C10.75 11.6166 10.725 11.6666 10.6917 11.7166L10.5917 11.8416C10.5083 11.9166 10.425 11.975 10.3167 12.0166C10.2167 12.0583 10.1083 12.0833 10 12.0833ZM7.08333 15C6.975 15 6.86667 14.975 6.76667 14.9333C6.66667 14.8916 6.575 14.8333 6.49167 14.7583C6.41667 14.675 6.35833 14.5916 6.31667 14.4833C6.27386 14.3831 6.25121 14.2755 6.25 14.1666C6.25 13.95 6.34167 13.7333 6.49167 13.575C6.575 13.5 6.66667 13.4416 6.76667 13.4C7.075 13.2666 7.44167 13.3416 7.675 13.575C7.70833 13.6166 7.75 13.6583 7.775 13.7C7.80833 13.75 7.83333 13.8 7.85 13.85C7.875 13.9 7.89167 13.95 7.9 14.0083C7.90833 14.0583 7.91667 14.1166 7.91667 14.1666C7.91667 14.3833 7.825 14.6 7.675 14.7583C7.51667 14.9083 7.3 15 7.08333 15Z" fill="#64748B"/>
</svg>
