<svg width="19" height="19" viewBox="0 0 19 19" fill="none" xmlns="http://www.w3.org/2000/svg">
<path d="M9.49977 8.28563C9.693 8.28563 9.87832 8.36239 10.015 8.49902C10.1516 8.63566 10.2284 8.82098 10.2284 9.01421V13.8714C10.2284 14.0647 10.1516 14.25 10.015 14.3866C9.87832 14.5233 9.693 14.6 9.49977 14.6C9.30653 14.6 9.12122 14.5233 8.98458 14.3866C8.84794 14.25 8.77118 14.0647 8.77118 13.8714V9.01421C8.77118 8.82098 8.84794 8.63566 8.98458 8.49902C9.12122 8.36239 9.30653 8.28563 9.49977 8.28563ZM9.49977 6.58559C9.75741 6.58559 10.0045 6.48325 10.1867 6.30106C10.3689 6.11888 10.4712 5.87179 10.4712 5.61415C10.4712 5.3565 10.3689 5.10941 10.1867 4.92723C10.0045 4.74505 9.75741 4.6427 9.49977 4.6427C9.24212 4.6427 8.99503 4.74505 8.81285 4.92723C8.63067 5.10941 8.52832 5.3565 8.52832 5.61415C8.52832 5.87179 8.63067 6.11888 8.81285 6.30106C8.99503 6.48325 9.24212 6.58559 9.49977 6.58559Z" fill="#4D4ADF"/>
<path fill-rule="evenodd" clip-rule="evenodd" d="M0.999512 9.49992C0.999512 7.24554 1.89506 5.08349 3.48915 3.4894C5.08324 1.89531 7.24529 0.999756 9.49967 0.999756C11.7541 0.999756 13.9161 1.89531 15.5102 3.4894C17.1043 5.08349 17.9998 7.24554 17.9998 9.49992C17.9998 11.7543 17.1043 13.9164 15.5102 15.5104C13.9161 17.1045 11.7541 18.0001 9.49967 18.0001C7.24529 18.0001 5.08324 17.1045 3.48915 15.5104C1.89506 13.9164 0.999512 11.7543 0.999512 9.49992ZM9.49967 2.45693C8.57478 2.45693 7.65893 2.6391 6.80444 2.99304C5.94994 3.34699 5.17353 3.86577 4.51953 4.51977C3.86552 5.17377 3.34674 5.95019 2.9928 6.80468C2.63885 7.65918 2.45668 8.57502 2.45668 9.49992C2.45668 10.4248 2.63885 11.3407 2.9928 12.1952C3.34674 13.0497 3.86552 13.8261 4.51953 14.4801C5.17353 15.1341 5.94994 15.6529 6.80444 16.0068C7.65893 16.3607 8.57478 16.5429 9.49967 16.5429C11.3676 16.5429 13.159 15.8009 14.4798 14.4801C15.8006 13.1592 16.5427 11.3678 16.5427 9.49992C16.5427 7.632 15.8006 5.84059 14.4798 4.51977C13.159 3.19895 11.3676 2.45693 9.49967 2.45693Z" fill="#4D4ADF"/>
</svg>
