<svg width="20" height="20" viewBox="0 0 20 20" fill="none" xmlns="http://www.w3.org/2000/svg">
<path d="M9.99984 1.66669C5.39734 1.66669 1.6665 5.39752 1.6665 10C1.6665 14.6025 5.39734 18.3334 9.99984 18.3334C13.6298 18.3334 16.7148 16.0134 17.8582 12.7775C17.8983 12.6736 17.9171 12.5626 17.9135 12.4512C17.91 12.3399 17.8842 12.2303 17.8375 12.1291C17.7909 12.0279 17.7245 11.9371 17.6422 11.862C17.5599 11.7869 17.4633 11.7291 17.3582 11.692C17.2532 11.6549 17.1417 11.6392 17.0305 11.6459C16.9193 11.6526 16.8105 11.6815 16.7107 11.731C16.6109 11.7805 16.5219 11.8495 16.4492 11.9339C16.3765 12.0183 16.3215 12.1165 16.2873 12.2225C15.8799 13.3747 15.1636 14.3928 14.2167 15.1654C13.2698 15.938 12.1288 16.4355 10.9183 16.6034C9.70776 16.7714 8.47437 16.6034 7.3529 16.1177C6.23142 15.6321 5.26501 14.8475 4.55928 13.8498C3.85356 12.8521 3.43567 11.6795 3.35129 10.4603C3.2669 9.24113 3.51928 8.02221 4.08082 6.93675C4.64237 5.8513 5.49148 4.94108 6.53536 4.30559C7.57925 3.67009 8.77773 3.33376 9.99984 3.33335C11.2932 3.33335 12.3882 3.80085 13.4298 4.53335C14.1298 5.02669 14.779 5.61752 15.4365 6.25002H12.9165C12.6955 6.25002 12.4835 6.33782 12.3272 6.4941C12.171 6.65038 12.0832 6.86234 12.0832 7.08335C12.0832 7.30437 12.171 7.51633 12.3272 7.67261C12.4835 7.82889 12.6955 7.91669 12.9165 7.91669H17.4998C17.7209 7.91669 17.9328 7.82889 18.0891 7.67261C18.2454 7.51633 18.3332 7.30437 18.3332 7.08335V2.50002C18.3332 2.27901 18.2454 2.06704 18.0891 1.91076C17.9328 1.75448 17.7209 1.66669 17.4998 1.66669C17.2788 1.66669 17.0669 1.75448 16.9106 1.91076C16.7543 2.06704 16.6665 2.27901 16.6665 2.50002V5.12002C15.9598 4.43835 15.2048 3.74502 14.389 3.17002C13.1623 2.30835 11.7373 1.66669 9.99984 1.66669Z" fill="white"/>
</svg>
